# xmcd
#
# Track frame offsets:
#	150
#	13952
#	27223
#	42308
#	54829
#	67127
#	78999
#	89968
#	100897
#	112778
#	124854
#	135646
#	147666
#	157703
#	168484
#	179131
#	195896
#	208612
#	220463
#	234247
#	245877
#	265676
#	282189
#	293810
#	306164
#
# Disc length: 4236 seconds
#
# Revision: 0
# Processed by: cddbd v1.5.2PL0 Copyright (c) Steve Scherf et al.
# Submitted via: audiograbber 1.83.01
#
DISCID=74108a19
DTITLE=Western - The Best of Country und West
DYEAR=1900
DGENRE=Country
TTITLE0=Charley Pride - Detroit City 2
TTITLE1=Hank Williams - Jambalaya
TTITLE2=Jim Reeves - Blue Side of Lonesome
TTITLE3=Johnny Horton - North to Alaska
TTITLE4=Frankie Lane - High Noon
TTITLE5=Skeeter Davis - The End of the World
TTITLE6=Porter Wagoner - Green Green Grass of Home
TTITLE7=Waylon Jennings - Anita You´re Dreaming
TTITLE8=Dickey Lee - Never Ending Song of Love
TTITLE9=Tammy Wynette - Stand by your Man
TTITLE10=Jim Reeves - He´ll have to go
TTITLE11=Guy Mitchell - Heartaches by the Number
TTITLE12=Johnny Cash - Ballad of a teenage queen
TTITLE13=Leroy Van Dyke - Walk on by
TTITLE14=Johnny Cash - Bonanza
TTITLE15=Dolly Parton - The Great Pretender
TTITLE16=Jim Reeves - Distant Drums
TTITLE17=Bobby Bare - The Streets of Baltimore
TTITLE18=Charley Pride - Detroit City
TTITLE19=Johnny Cash - Ring of Fire
TTITLE20=Marty Robbins - El Paso
TTITLE21=Dolly Parton - Save the last Dance for me
TTITLE22=Don Gibson - Oh Lonesome Me
TTITLE23=Don Williams - Some Broken Hearts Never Mend
TTITLE24=Dave Dudley - MAD
EXTD=
EXTT0=
EXTT1=
EXTT2=
EXTT3=
EXTT4=
EXTT5=
EXTT6=
EXTT7=
EXTT8=
EXTT9=
EXTT10=
EXTT11=
EXTT12=
EXTT13=
EXTT14=
EXTT15=
EXTT16=
EXTT17=
EXTT18=
EXTT19=
EXTT20=
EXTT21=
EXTT22=
EXTT23=
EXTT24=
PLAYORDER=
